<?xml version="1.0" encoding="UTF-8"?>
<svg version="1.1" xmlns="http://www.w3.org/2000/svg" width="118" height="33">
<path d="M0 0 C3.2175 -0.0825 6.435 -0.165 9.75 -0.25 C11.26158691 -0.30462402 11.26158691 -0.30462402 12.80371094 -0.36035156 C19.41995587 -0.44275558 19.41995587 -0.44275558 22.640625 2.015625 C23.08921875 2.67046875 23.5378125 3.3253125 24 4 C24.61230469 3.34515625 25.22460938 2.6903125 25.85546875 2.015625 C30.33966594 -0.85871755 34.10969806 -0.44119838 39.3125 -0.25 C40.70952148 -0.22292969 40.70952148 -0.22292969 42.13476562 -0.1953125 C44.42424197 -0.14834888 46.71158184 -0.08269475 49 0 C50 2 50 2 49 6 C41.08 6.495 41.08 6.495 33 7 C32.67 7.99 32.34 8.98 32 10 C32.88042969 9.96519531 33.76085937 9.93039062 34.66796875 9.89453125 C35.82941406 9.86746094 36.99085937 9.84039062 38.1875 9.8125 C39.91033203 9.76029297 39.91033203 9.76029297 41.66796875 9.70703125 C45.37053214 10.03257903 47.19476929 10.56360518 50 13 C50.62890625 15.59375 50.62890625 15.59375 50.5625 18.5 C50.56443359 19.93859375 50.56443359 19.93859375 50.56640625 21.40625 C50 24 50 24 48.27612305 25.64379883 C45.60031118 27.23814989 44.1068674 27.34951587 41.015625 27.29296875 C40.08105469 27.28330078 39.14648438 27.27363281 38.18359375 27.26367188 C37.21550781 27.23853516 36.24742188 27.21339844 35.25 27.1875 C34.26644531 27.17396484 33.28289062 27.16042969 32.26953125 27.14648438 C29.84579585 27.11118726 27.42317855 27.06188054 25 27 C25 25.02 25 23.04 25 21 C33.415 20.505 33.415 20.505 42 20 C42.495 18.515 42.495 18.515 43 17 C41.66195312 17.03480469 41.66195312 17.03480469 40.296875 17.0703125 C39.12640625 17.08835937 37.9559375 17.10640625 36.75 17.125 C35.58984375 17.14820312 34.4296875 17.17140625 33.234375 17.1953125 C30.14660694 17.00885308 28.52724877 16.71662181 26 15 C24.75 12.875 24.75 12.875 24 11 C23.67 11.99 23.34 12.98 23 14 C23.33 14.66 23.66 15.32 24 16 C24.56436141 22.09510323 24.56436141 22.09510323 22.62109375 25.2109375 C18.53792143 27.99796123 14.56118955 27.42386134 9.75 27.25 C4.92375 27.12625 4.92375 27.12625 0 27 C0 18.09 0 9.18 0 0 Z M7 6 C7 7.32 7 8.64 7 10 C9.97 10 12.94 10 16 10 C16 8.68 16 7.36 16 6 C13.03 6 10.06 6 7 6 Z M7 17 C7 18.32 7 19.64 7 21 C9.97 21 12.94 21 16 21 C16 19.68 16 18.36 16 17 C13.03 17 10.06 17 7 17 Z " fill="#0392CC" transform="translate(68,4)"/>
<path d="M0 0 C0.74507812 0.01353516 1.49015625 0.02707031 2.2578125 0.04101562 C4.08885416 0.07622796 5.91952169 0.13003149 7.75 0.1875 C7.75 2.1675 7.75 4.1475 7.75 6.1875 C6.37714844 6.24357422 6.37714844 6.24357422 4.9765625 6.30078125 C3.78804687 6.36652344 2.59953125 6.43226562 1.375 6.5 C0.19164062 6.55800781 -0.99171875 6.61601562 -2.2109375 6.67578125 C-3.21382812 6.84464844 -4.21671875 7.01351563 -5.25 7.1875 C-6.24 8.6725 -6.24 8.6725 -7.25 10.1875 C-2.3 10.1875 2.65 10.1875 7.75 10.1875 C7.75 12.1675 7.75 14.1475 7.75 16.1875 C4.98547967 17.56976016 2.7038637 17.28275387 -0.375 17.25 C-1.47070312 17.24097656 -2.56640625 17.23195313 -3.6953125 17.22265625 C-4.53835937 17.21105469 -5.38140625 17.19945313 -6.25 17.1875 C-6.25 17.8475 -6.25 18.5075 -6.25 19.1875 C-3.54816945 20.53841528 -1.13191794 20.52608058 1.875 20.75 C3.51855469 20.87568359 3.51855469 20.87568359 5.1953125 21.00390625 C6.45988281 21.09478516 6.45988281 21.09478516 7.75 21.1875 C7.75 23.1675 7.75 25.1475 7.75 27.1875 C5.20651575 27.32343443 2.67038504 27.42198907 0.125 27.5 C-0.58785156 27.54189453 -1.30070312 27.58378906 -2.03515625 27.62695312 C-6.04450879 27.71891075 -8.51945122 27.39931033 -11.7109375 24.85546875 C-15.83740812 20.51950039 -15.52902531 16.56264804 -15.46875 10.8515625 C-15.1214522 6.6219714 -13.5517434 4.50519614 -10.65625 1.57421875 C-7.1921106 -0.42216029 -3.87627206 -0.13354648 0 0 Z " fill="#0592CA" transform="translate(58.25,3.8125)"/>
<path d="M0 0 C-3.27708863 3.67033927 -6.71522208 5.69281189 -11 8 C-10.19175781 7.6390625 -9.38351562 7.278125 -8.55078125 6.90625 C-7.48214844 6.4421875 -6.41351562 5.978125 -5.3125 5.5 C-4.25675781 5.0359375 -3.20101563 4.571875 -2.11328125 4.09375 C0.85627816 3.05049199 2.89195063 2.76934699 6 3 C3.53214339 5.77633868 1.0804519 7.57411884 -2.125 9.375 C-5.01063481 11.13874314 -5.94689436 11.90755685 -7.6875 14.9375 C-8.10527386 19.03168383 -7.36268392 20.63496533 -5 24 C-3.20349998 25.44276439 -1.38269247 26.70640219 0.57421875 27.921875 C1.27998047 28.45554687 1.27998047 28.45554687 2 29 C2 29.66 2 30.32 2 31 C-4.11387503 30.69430625 -7.43590248 27.6687948 -12 24 C-12.99 23.34 -13.98 22.68 -15 22 C-11.84778899 26.41309542 -8.44536093 29.00793014 -4 32 C-6.65581079 33.03417517 -7.69724444 33.12839633 -10.3671875 31.99609375 C-20.49829352 25.6996587 -20.49829352 25.6996587 -24 21 C-24.71468785 17.85090668 -24.83687312 15.12468859 -24 12 C-21.27392805 7.7729849 -18.447083 5.87347155 -13.9375 3.75 C-12.89464844 3.24984375 -11.85179687 2.7496875 -10.77734375 2.234375 C-6.94795722 0.53242543 -4.16363517 -0.11253068 0 0 Z M-15 11 C-15 14 -15 14 -15 14 Z M-17 15 C-16 19 -16 19 -16 19 Z " fill="#67A248" transform="translate(24,0)"/>
<path d="M0 0 C-2.46785661 2.77633868 -4.9195481 4.57411884 -8.125 6.375 C-11.01063481 8.13874314 -11.94689436 8.90755685 -13.6875 11.9375 C-14.10527386 16.03168383 -13.36268392 17.63496533 -11 21 C-9.20349998 22.44276439 -7.38269247 23.70640219 -5.42578125 24.921875 C-4.72001953 25.45554687 -4.72001953 25.45554687 -4 26 C-4 26.66 -4 27.32 -4 28 C-11.15910509 27.64204475 -15.69918988 23.35833038 -20.5 18.4375 C-22.26869355 15.56337298 -22.66157878 14.3078939 -22 11 C-17.99728707 3.72234013 -7.99930935 -0.21619755 0 0 Z " fill="#5788CB" transform="translate(30,3)"/>
<path d="M0 0 C-0.69867188 0.47050781 -1.39734375 0.94101563 -2.1171875 1.42578125 C-3.48230469 2.35970703 -3.48230469 2.35970703 -4.875 3.3125 C-5.77992187 3.92738281 -6.68484375 4.54226562 -7.6171875 5.17578125 C-10.19971385 6.94913949 -10.19971385 6.94913949 -12 10 C-11.90417637 13.64129803 -11.09564345 14.89428882 -8.625 17.625 C-7.75875 18.40875 -6.8925 19.1925 -6 20 C-5 21 -4 22 -3 23 C-3.66 23.33 -4.32 23.66 -5 24 C-10.34722009 21.79387776 -15.49647871 18.63368945 -19 14 C-19.75 11.0625 -19.75 11.0625 -19 8 C-14.58572771 2.52204764 -7.08805028 -2.27886317 0 0 Z " fill="#E12018" transform="translate(38,6)"/>
<path d="M0 0 C-0.5053125 0.35191406 -1.010625 0.70382812 -1.53125 1.06640625 C-3.56331266 2.6106126 -5.32768795 4.06782994 -7 6 C-7.58661468 9.75393319 -7.58661468 9.75393319 -7 13 C-5.68 13.66 -4.36 14.32 -3 15 C-3 15.66 -3 16.32 -3 17 C-5.912575 16.91433603 -7.56798024 16.42089045 -9.66796875 14.375 C-11.16091772 12.61608625 -12.60436262 10.83686981 -14 9 C-12.64231796 4.11234467 -10.32965579 2.47408902 -6 0 C-3 -1 -3 -1 0 0 Z " fill="#7E4075" transform="translate(41,9)"/>
</svg>
